<svg width="14" height="14" viewBox="0 0 14 14" fill="none" xmlns="http://www.w3.org/2000/svg">
<path d="M6.89301 4.51354L7.217 5.27136C7.23897 5.33726 7.29938 5.3757 7.35978 5.38119L8.1835 5.45807C8.35923 5.47454 8.42513 5.68871 8.29882 5.80403L7.67829 6.34769C7.62886 6.39162 7.6069 6.45751 7.62337 6.51792L7.80459 7.32517C7.84303 7.4954 7.66181 7.6272 7.50805 7.53933L6.79965 7.11649C6.74474 7.08354 6.67335 7.08354 6.61843 7.11649L5.91004 7.53933C5.76177 7.6272 5.57506 7.4954 5.6135 7.32517L5.79472 6.51792C5.81119 6.45751 5.78922 6.39162 5.7398 6.34769L5.11927 5.80403C4.98747 5.68871 5.05886 5.47454 5.23459 5.45807L6.05831 5.38119C6.1242 5.3757 6.17912 5.33726 6.20658 5.27685L6.53057 4.51903C6.59647 4.35428 6.82162 4.35428 6.89301 4.51354Z" stroke="#F0C932" stroke-width="0.549146" stroke-miterlimit="10" stroke-linecap="round" stroke-linejoin="round"/>
<path d="M10.4445 6.11945C10.4587 4.05711 8.79837 2.37375 6.73603 2.35955C4.67369 2.34536 2.99033 4.00571 2.97614 6.06805C2.96195 8.13039 4.6223 9.81375 6.68464 9.82795C8.74697 9.84214 10.4303 8.18179 10.4445 6.11945Z" stroke="#F0C932" stroke-width="0.549146" stroke-miterlimit="10" stroke-linecap="round" stroke-linejoin="round"/>
<path d="M6.20107 9.79071L5.27301 12.1246L4.09784 10.7792L2.3241 10.9439L3.49927 8.00049" stroke="#F0C932" stroke-width="0.549146" stroke-miterlimit="10" stroke-linecap="round" stroke-linejoin="round"/>
<path d="M7.21152 9.79071L8.14507 12.1246L9.31475 10.7792L11.094 10.9439L9.91332 8.00049" stroke="#F0C932" stroke-width="0.549146" stroke-miterlimit="10" stroke-linecap="round" stroke-linejoin="round"/>
</svg>
